<svg xmlns="http://www.w3.org/2000/svg" xmlns:xlink="http://www.w3.org/1999/xlink" width="2789" zoomAndPan="magnify" viewBox="0 0 2091.75 1439.249996" height="1919" preserveAspectRatio="xMidYMid meet" version="1.0"><defs><g/><clipPath id="85c08f25b3"><path d="M 845 0.511719 L 1416.085938 0.511719 L 1416.085938 880 L 845 880 Z M 845 0.511719 " clip-rule="nonzero"/></clipPath><clipPath id="4dde4ae118"><rect x="0" width="572" y="0" height="880"/></clipPath><clipPath id="c66bf0d95a"><path d="M 0.585938 6 L 560 6 L 560 903 L 0.585938 903 Z M 0.585938 6 " clip-rule="nonzero"/></clipPath><clipPath id="772e0be7e1"><rect x="0" width="560" y="0" height="897"/></clipPath><clipPath id="3392aafec5"><rect x="0" width="1094" y="0" height="250"/></clipPath><clipPath id="3f93367fdb"><path d="M 279 991 L 1306 991 L 1306 1142.316406 L 279 1142.316406 Z M 279 991 " clip-rule="nonzero"/></clipPath><clipPath id="e6df84fcf3"><rect x="0" width="1027" y="0" height="152"/></clipPath><clipPath id="64d42012c2"><rect x="0" width="531" y="0" height="880"/></clipPath><clipPath id="c735cc43c4"><rect x="0" width="1417" y="0" height="1143"/></clipPath></defs><g transform="matrix(1, 0, 0, 1, 298, 248)"><g clip-path="url(#c735cc43c4)"><g clip-path="url(#85c08f25b3)"><g transform="matrix(1, 0, 0, 1, 845, 0.000000000000056843)"><g clip-path="url(#4dde4ae118)"><g fill="#ffffff" fill-opacity="1"><g transform="translate(1.030009, 676.027356)"><g><path d="M 338.640625 9.90625 C 290.671875 9.90625 247.320312 1.320312 208.59375 -15.84375 C 169.875 -33.007812 136.648438 -56.664062 108.921875 -86.8125 C 81.191406 -116.957031 59.957031 -151.832031 45.21875 -191.4375 C 30.476562 -231.039062 23.109375 -273.507812 23.109375 -318.84375 C 23.109375 -364.164062 30.476562 -406.628906 45.21875 -446.234375 C 59.957031 -485.847656 81.191406 -520.726562 108.921875 -550.875 C 136.648438 -581.019531 169.875 -604.5625 208.59375 -621.5 C 247.320312 -638.445312 290.671875 -646.921875 338.640625 -646.921875 C 385.734375 -646.921875 429.082031 -640.316406 468.6875 -627.109375 C 508.289062 -613.910156 540.859375 -593.226562 566.390625 -565.0625 C 560.671875 -551.425781 555.28125 -537.34375 550.21875 -522.8125 C 545.15625 -508.289062 540.640625 -494.867188 536.671875 -482.546875 C 532.710938 -470.222656 529.523438 -460.210938 527.109375 -452.515625 C 524.691406 -444.816406 523.484375 -440.96875 523.484375 -440.96875 C 523.484375 -440.96875 520.507812 -445.035156 514.5625 -453.171875 C 508.625 -461.316406 499.160156 -470.554688 486.171875 -480.890625 C 473.191406 -491.234375 456.582031 -500.476562 436.34375 -508.625 C 416.101562 -516.769531 391.675781 -520.84375 363.0625 -520.84375 C 329.175781 -520.84375 297.710938 -513.359375 268.671875 -498.390625 C 239.628906 -483.429688 216.191406 -460.988281 198.359375 -431.0625 C 180.535156 -401.132812 171.625 -363.507812 171.625 -318.1875 C 171.625 -273.289062 180.535156 -235.988281 198.359375 -206.28125 C 216.191406 -176.582031 239.628906 -154.25 268.671875 -139.28125 C 297.710938 -124.320312 329.175781 -116.84375 363.0625 -116.84375 C 391.675781 -116.84375 416.101562 -120.910156 436.34375 -129.046875 C 456.582031 -137.191406 473.191406 -146.4375 486.171875 -156.78125 C 499.160156 -167.125 508.625 -176.363281 514.5625 -184.5 C 520.507812 -192.644531 523.484375 -196.71875 523.484375 -196.71875 C 523.484375 -196.71875 524.691406 -192.863281 527.109375 -185.15625 C 529.523438 -177.457031 532.710938 -167.445312 536.671875 -155.125 C 540.640625 -142.800781 545.15625 -129.378906 550.21875 -114.859375 C 555.28125 -100.335938 560.671875 -86.253906 566.390625 -72.609375 C 540.859375 -44.441406 508.289062 -23.644531 468.6875 -10.21875 C 429.082031 3.195312 385.734375 9.90625 338.640625 9.90625 Z M 338.640625 9.90625 "/></g></g></g></g></g></g><g clip-path="url(#c66bf0d95a)"><g transform="matrix(1, 0, 0, 1, -0.000000000000056843, 6)"><g clip-path="url(#772e0be7e1)"><g fill="#ffffff" fill-opacity="1"><g transform="translate(2.026975, 689.047989)"><g><path d="M 92.796875 -457.921875 C 84.273438 -483.921875 76.316406 -508.347656 68.921875 -531.203125 C 61.523438 -554.066406 53.007812 -575.25 43.375 -594.75 C 33.738281 -614.25 21.519531 -632.296875 6.71875 -648.890625 L 242.078125 -648.890625 C 234.453125 -641.710938 228.734375 -633.53125 224.921875 -624.34375 C 221.109375 -615.15625 219.203125 -606.078125 219.203125 -597.109375 C 219.203125 -586.347656 221.78125 -570.429688 226.9375 -549.359375 C 232.09375 -528.296875 238.703125 -504.09375 246.765625 -476.75 C 254.835938 -449.40625 263.46875 -420.9375 272.65625 -391.34375 C 281.851562 -361.757812 290.929688 -333.070312 299.890625 -305.28125 C 308.859375 -277.488281 316.484375 -252.609375 322.765625 -230.640625 C 333.078125 -241.847656 342.710938 -256.753906 351.671875 -275.359375 C 360.640625 -293.960938 368.597656 -314.46875 375.546875 -336.875 C 382.492188 -359.289062 387.875 -382.15625 391.6875 -405.46875 C 395.5 -428.78125 397.40625 -450.523438 397.40625 -470.703125 C 397.40625 -502.078125 394.601562 -528.96875 389 -551.375 C 383.394531 -573.789062 376.78125 -592.171875 369.15625 -606.515625 C 361.539062 -620.867188 354.929688 -631.519531 349.328125 -638.46875 C 343.722656 -645.414062 340.921875 -648.890625 340.921875 -648.890625 L 492.890625 -648.890625 C 492.890625 -648.890625 495.800781 -646.644531 501.625 -642.15625 C 507.457031 -637.675781 514.070312 -629.71875 521.46875 -618.28125 C 528.863281 -606.851562 535.472656 -590.71875 541.296875 -569.875 C 547.128906 -549.03125 550.046875 -522.472656 550.046875 -490.203125 C 550.046875 -446.710938 543.769531 -402.664062 531.21875 -358.0625 C 518.664062 -313.457031 502.640625 -269.75 483.140625 -226.9375 C 463.640625 -184.125 442.90625 -143.441406 420.9375 -104.890625 C 398.96875 -66.335938 378.347656 -31.375 359.078125 0 L 234.671875 0 C 223.460938 -35.863281 213.375 -68.8125 204.40625 -98.84375 C 195.445312 -128.875 186.820312 -157.5625 178.53125 -184.90625 C 170.238281 -212.257812 161.832031 -239.832031 153.3125 -267.625 C 144.789062 -295.414062 135.597656 -324.773438 125.734375 -355.703125 C 115.878906 -386.640625 104.898438 -420.710938 92.796875 -457.921875 Z M 92.796875 -457.921875 "/></g></g></g></g></g></g><g transform="matrix(1, 0, 0, 1, 251, 749)"><g clip-path="url(#3392aafec5)"><g fill="#ffffff" fill-opacity="1"><g transform="translate(0.584339, 173.133574)"><g><path d="M 78.53125 0 L 8.859375 -166.109375 L 51.546875 -166.109375 L 93.421875 -56.984375 L 135.296875 -166.109375 L 177.984375 -166.109375 L 108.328125 0 Z M 78.53125 0 "/></g></g></g><g fill="#ffffff" fill-opacity="1"><g transform="translate(187.231562, 173.133574)"><g><path d="M 52.953125 -166.109375 L 52.953125 0 L 15.09375 0 L 15.09375 -166.109375 Z M 52.953125 -166.109375 "/></g></g></g><g fill="#ffffff" fill-opacity="1"><g transform="translate(255.28638, 173.133574)"><g><path d="M 29.59375 -50.734375 C 33.894531 -47.648438 38.894531 -44.796875 44.59375 -42.171875 C 50.300781 -39.554688 56.039062 -37.507812 61.8125 -36.03125 C 67.582031 -34.5625 72.914062 -33.894531 77.8125 -34.03125 C 82.71875 -34.164062 86.679688 -35.335938 89.703125 -37.546875 C 92.722656 -39.765625 94.234375 -43.359375 94.234375 -48.328125 C 94.234375 -52.753906 92.550781 -56.675781 89.1875 -60.09375 C 85.832031 -63.519531 81.535156 -66.742188 76.296875 -69.765625 C 71.066406 -72.785156 65.5 -75.835938 59.59375 -78.921875 C 53.6875 -82.015625 48.113281 -85.40625 42.875 -89.09375 C 37.644531 -92.78125 33.382812 -97.003906 30.09375 -101.765625 C 26.8125 -106.535156 25.171875 -112.078125 25.171875 -118.390625 C 25.171875 -125.503906 26.679688 -132.445312 29.703125 -139.21875 C 32.722656 -146 37.1875 -151.90625 43.09375 -156.9375 C 49 -161.976562 56.210938 -165.570312 64.734375 -167.71875 C 73.253906 -169.863281 83.050781 -169.894531 94.125 -167.8125 C 105.195312 -165.738281 117.445312 -160.941406 130.875 -153.421875 L 115.578125 -123.21875 C 109.265625 -128.59375 102.988281 -132.117188 96.75 -133.796875 C 90.507812 -135.472656 84.769531 -135.804688 79.53125 -134.796875 C 74.289062 -133.796875 70.09375 -131.914062 66.9375 -129.15625 C 63.789062 -126.40625 62.21875 -123.285156 62.21875 -119.796875 C 62.21875 -116.710938 63.960938 -113.925781 67.453125 -111.4375 C 70.941406 -108.957031 75.46875 -106.472656 81.03125 -103.984375 C 86.601562 -101.503906 92.546875 -98.753906 98.859375 -95.734375 C 105.171875 -92.710938 111.109375 -89.15625 116.671875 -85.0625 C 122.242188 -80.96875 126.804688 -76.132812 130.359375 -70.5625 C 133.921875 -65 135.703125 -58.320312 135.703125 -50.53125 C 135.703125 -42.613281 133.550781 -34.960938 129.25 -27.578125 C 124.957031 -20.203125 118.984375 -13.828125 111.328125 -8.453125 C 103.679688 -3.085938 94.625 0.460938 84.15625 2.203125 C 73.6875 3.953125 62.242188 3.285156 49.828125 0.203125 C 37.410156 -2.878906 24.359375 -9.253906 10.671875 -18.921875 Z M 29.59375 -50.734375 "/></g></g></g><g fill="#ffffff" fill-opacity="1"><g transform="translate(401.463214, 173.133574)"><g><path d="M 10.265625 -132.890625 L 10.265625 -166.109375 L 127.046875 -166.109375 L 127.046875 -132.890625 L 87.578125 -132.890625 L 87.578125 0 L 49.734375 0 L 49.734375 -132.890625 Z M 10.265625 -132.890625 "/></g></g></g><g fill="#ffffff" fill-opacity="1"><g transform="translate(538.78085, 173.133574)"><g><path d="M 111.140625 -166.109375 L 178.390625 0 L 137.71875 0 L 125.234375 -33.21875 L 62.015625 -33.21875 L 49.9375 0 L 9.265625 0 L 76.109375 -166.109375 Z M 112.34375 -66.4375 L 93.421875 -114.765625 L 74.90625 -66.4375 Z M 112.34375 -66.4375 "/></g></g></g><g fill="#ffffff" fill-opacity="1"><g transform="translate(726.233458, 173.133574)"><g><path d="M 13.09375 -166.109375 L 73.6875 -166.109375 C 86.976562 -165.835938 97.785156 -163.21875 106.109375 -158.25 C 114.429688 -153.289062 120.535156 -146.953125 124.421875 -139.234375 C 128.316406 -131.515625 130.265625 -123.425781 130.265625 -114.96875 C 130.128906 -106.507812 128.6875 -99.328125 125.9375 -93.421875 C 123.1875 -87.515625 119.492188 -82.613281 114.859375 -78.71875 C 110.234375 -74.832031 105.171875 -71.75 99.671875 -69.46875 L 145.375 0 L 103.6875 0 L 63.015625 -62.015625 C 60.734375 -61.878906 58.550781 -61.773438 56.46875 -61.703125 C 54.394531 -61.640625 52.550781 -61.609375 50.9375 -61.609375 L 50.9375 0 L 13.09375 0 Z M 50.9375 -91.8125 C 55.5 -91.945312 60.09375 -92.25 64.71875 -92.71875 C 69.351562 -93.1875 73.582031 -94.160156 77.40625 -95.640625 C 81.238281 -97.117188 84.328125 -99.300781 86.671875 -102.1875 C 89.023438 -105.070312 90.269531 -108.929688 90.40625 -113.765625 C 90.40625 -119.929688 88.625 -124.59375 85.0625 -127.75 C 81.507812 -130.90625 76.742188 -133.050781 70.765625 -134.1875 C 64.796875 -135.332031 58.1875 -135.90625 50.9375 -135.90625 Z M 50.9375 -91.8125 "/></g></g></g><g fill="#ffffff" fill-opacity="1"><g transform="translate(869.390073, 173.133574)"><g><path d="M 111.140625 -166.109375 L 178.390625 0 L 137.71875 0 L 125.234375 -33.21875 L 62.015625 -33.21875 L 49.9375 0 L 9.265625 0 L 76.109375 -166.109375 Z M 112.34375 -66.4375 L 93.421875 -114.765625 L 74.90625 -66.4375 Z M 112.34375 -66.4375 "/></g></g></g><g fill="#ffffff" fill-opacity="1"><g transform="translate(1056.90324, 173.133574)"><g/></g></g></g></g><g clip-path="url(#3f93367fdb)"><g transform="matrix(1, 0, 0, 1, 279, 991)"><g clip-path="url(#e6df84fcf3)"><g fill="#ffffff" fill-opacity="1"><g transform="translate(2.637499, 104.843067)"><g/></g></g><g fill="#ffffff" fill-opacity="1"><g transform="translate(22.929264, 104.843067)"><g><path d="M 17.890625 -30.6875 C 20.492188 -28.8125 23.519531 -27.082031 26.96875 -25.5 C 30.414062 -23.914062 33.882812 -22.675781 37.375 -21.78125 C 40.863281 -20.894531 44.085938 -20.492188 47.046875 -20.578125 C 50.015625 -20.660156 52.410156 -21.367188 54.234375 -22.703125 C 56.066406 -24.046875 56.984375 -26.21875 56.984375 -29.21875 C 56.984375 -31.894531 55.96875 -34.269531 53.9375 -36.34375 C 51.90625 -38.414062 49.304688 -40.363281 46.140625 -42.1875 C 42.972656 -44.007812 39.601562 -45.851562 36.03125 -47.71875 C 32.46875 -49.59375 29.101562 -51.644531 25.9375 -53.875 C 22.769531 -56.101562 20.191406 -58.65625 18.203125 -61.53125 C 16.210938 -64.414062 15.21875 -67.769531 15.21875 -71.59375 C 15.21875 -75.894531 16.128906 -80.09375 17.953125 -84.1875 C 19.785156 -88.289062 22.484375 -91.863281 26.046875 -94.90625 C 29.617188 -97.945312 33.984375 -100.113281 39.140625 -101.40625 C 44.296875 -102.707031 50.222656 -102.726562 56.921875 -101.46875 C 63.617188 -100.21875 71.023438 -97.320312 79.140625 -92.78125 L 69.890625 -74.515625 C 66.066406 -77.753906 62.269531 -79.878906 58.5 -80.890625 C 54.726562 -81.910156 51.257812 -82.113281 48.09375 -81.5 C 44.925781 -80.894531 42.390625 -79.757812 40.484375 -78.09375 C 38.578125 -76.4375 37.625 -74.550781 37.625 -72.4375 C 37.625 -70.570312 38.675781 -68.890625 40.78125 -67.390625 C 42.894531 -65.890625 45.632812 -64.382812 49 -62.875 C 52.375 -61.375 55.96875 -59.710938 59.78125 -57.890625 C 63.59375 -56.066406 67.179688 -53.914062 70.546875 -51.4375 C 73.921875 -48.957031 76.679688 -46.035156 78.828125 -42.671875 C 80.984375 -39.304688 82.0625 -35.269531 82.0625 -30.5625 C 82.0625 -25.769531 80.757812 -21.140625 78.15625 -16.671875 C 75.5625 -12.210938 71.953125 -8.359375 67.328125 -5.109375 C 62.703125 -1.867188 57.222656 0.273438 50.890625 1.328125 C 44.554688 2.390625 37.632812 1.988281 30.125 0.125 C 22.625 -1.738281 14.734375 -5.59375 6.453125 -11.4375 Z M 17.890625 -30.6875 "/></g></g></g><g fill="#ffffff" fill-opacity="1"><g transform="translate(111.319854, 104.843067)"><g><path d="M 6.203125 -80.359375 L 6.203125 -100.4375 L 76.828125 -100.4375 L 76.828125 -80.359375 L 52.96875 -80.359375 L 52.96875 0 L 30.078125 0 L 30.078125 -80.359375 Z M 6.203125 -80.359375 "/></g></g></g><g fill="#ffffff" fill-opacity="1"><g transform="translate(194.35344, 104.843067)"><g><path d="M 87.046875 -100.4375 L 87.046875 -35.671875 C 87.046875 -23.253906 83.695312 -13.898438 77 -7.609375 C 70.3125 -1.316406 60.59375 1.828125 47.84375 1.828125 C 35.019531 1.828125 25.28125 -1.316406 18.625 -7.609375 C 11.96875 -13.898438 8.640625 -23.253906 8.640625 -35.671875 L 8.640625 -100.4375 L 31.53125 -100.4375 L 31.53125 -42.375 C 31.53125 -36.769531 32.097656 -32.382812 33.234375 -29.21875 C 34.367188 -26.050781 36.15625 -23.835938 38.59375 -22.578125 C 41.03125 -21.328125 44.113281 -20.703125 47.84375 -20.703125 C 51.582031 -20.703125 54.644531 -21.328125 57.03125 -22.578125 C 59.425781 -23.835938 61.210938 -26.050781 62.390625 -29.21875 C 63.566406 -32.382812 64.15625 -36.769531 64.15625 -42.375 L 64.15625 -100.4375 Z M 87.046875 -100.4375 "/></g></g></g><g fill="#ffffff" fill-opacity="1"><g transform="translate(289.927217, 104.843067)"><g><path d="M 63.546875 -50.15625 C 63.546875 -56 62.570312 -61.171875 60.625 -65.671875 C 58.675781 -70.179688 55.347656 -73.691406 50.640625 -76.203125 C 45.941406 -78.722656 39.453125 -79.984375 31.171875 -79.984375 L 31.171875 -20.453125 C 39.453125 -20.453125 45.941406 -21.707031 50.640625 -24.21875 C 55.347656 -26.738281 58.675781 -30.226562 60.625 -34.6875 C 62.570312 -39.15625 63.546875 -44.3125 63.546875 -50.15625 Z M 8.28125 -100.4375 L 37.5 -100.4375 C 44.394531 -100.4375 50.882812 -99.195312 56.96875 -96.71875 C 63.0625 -94.25 68.441406 -90.78125 73.109375 -86.3125 C 77.773438 -81.851562 81.425781 -76.554688 84.0625 -70.421875 C 86.707031 -64.296875 88.03125 -57.582031 88.03125 -50.28125 C 88.03125 -42.976562 86.707031 -36.257812 84.0625 -30.125 C 81.425781 -24 77.773438 -18.679688 73.109375 -14.171875 C 68.441406 -9.671875 63.0625 -6.179688 56.96875 -3.703125 C 50.882812 -1.234375 44.394531 0 37.5 0 L 8.28125 0 Z M 8.28125 -100.4375 "/></g></g></g><g fill="#ffffff" fill-opacity="1"><g transform="translate(386.231538, 104.843067)"><g><path d="M 66.109375 -100.4375 L 66.109375 -80.359375 L 31.53125 -80.359375 L 31.53125 -60.390625 L 64.65625 -60.390625 L 64.65625 -40.296875 L 31.53125 -40.296875 L 31.53125 -20.09375 L 66.109375 -20.09375 L 66.109375 0 L 8.640625 0 L 8.640625 -100.4375 Z M 66.109375 -100.4375 "/></g></g></g><g fill="#ffffff" fill-opacity="1"><g transform="translate(460.864304, 104.843067)"><g><path d="M 9.125 0 L 9.125 -100.4375 L 71.953125 -48.703125 L 72.203125 -100.4375 L 95.09375 -100.4375 L 95.09375 0 L 32.015625 -51.625 L 32.015625 0 Z M 9.125 0 "/></g></g></g><g fill="#ffffff" fill-opacity="1"><g transform="translate(565.08236, 104.843067)"><g><path d="M 6.203125 -80.359375 L 6.203125 -100.4375 L 76.828125 -100.4375 L 76.828125 -80.359375 L 52.96875 -80.359375 L 52.96875 0 L 30.078125 0 L 30.078125 -80.359375 Z M 6.203125 -80.359375 "/></g></g></g><g fill="#ffffff" fill-opacity="1"><g transform="translate(648.115946, 104.843067)"><g/></g></g><g fill="#ffffff" fill-opacity="1"><g transform="translate(668.326501, 104.843067)"><g><path d="M 90.34375 -3.046875 C 90.34375 -3.046875 89.425781 -2.640625 87.59375 -1.828125 C 85.769531 -1.015625 82.75 -0.203125 78.53125 0.609375 C 74.3125 1.421875 68.585938 1.828125 61.359375 1.828125 C 54.210938 1.828125 47.394531 0.488281 40.90625 -2.1875 C 34.414062 -4.863281 28.613281 -8.578125 23.5 -13.328125 C 18.382812 -18.078125 14.34375 -23.597656 11.375 -29.890625 C 8.414062 -36.179688 6.9375 -42.898438 6.9375 -50.046875 C 6.9375 -57.265625 8.394531 -64.019531 11.3125 -70.3125 C 14.238281 -76.601562 18.257812 -82.140625 23.375 -86.921875 C 28.488281 -91.710938 34.3125 -95.46875 40.84375 -98.1875 C 47.375 -100.90625 54.210938 -102.265625 61.359375 -102.265625 C 68.585938 -102.265625 74.3125 -101.859375 78.53125 -101.046875 C 82.75 -100.234375 85.769531 -99.421875 87.59375 -98.609375 C 89.425781 -97.804688 90.34375 -97.40625 90.34375 -97.40625 L 85.46875 -74.875 C 85.46875 -74.875 84.550781 -75.28125 82.71875 -76.09375 C 80.894531 -76.90625 78.441406 -77.71875 75.359375 -78.53125 C 72.273438 -79.34375 68.785156 -79.75 64.890625 -79.75 C 59.128906 -79.75 54.15625 -78.851562 49.96875 -77.0625 C 45.789062 -75.28125 42.34375 -72.925781 39.625 -70 C 36.90625 -67.082031 34.914062 -63.898438 33.65625 -60.453125 C 32.40625 -57.003906 31.78125 -53.613281 31.78125 -50.28125 C 31.78125 -46.875 32.40625 -43.445312 33.65625 -40 C 34.914062 -36.550781 36.90625 -33.363281 39.625 -30.4375 C 42.34375 -27.507812 45.789062 -25.15625 49.96875 -23.375 C 54.15625 -21.59375 59.128906 -20.703125 64.890625 -20.703125 C 68.785156 -20.703125 72.273438 -21.101562 75.359375 -21.90625 C 78.441406 -22.71875 80.894531 -23.53125 82.71875 -24.34375 C 84.550781 -25.15625 85.46875 -25.5625 85.46875 -25.5625 Z M 90.34375 -3.046875 "/></g></g></g><g fill="#ffffff" fill-opacity="1"><g transform="translate(765.483094, 104.843067)"><g><path d="M 30.921875 -100.4375 L 30.921875 -20.09375 L 65.5 -20.09375 L 65.5 0 L 8.03125 0 L 8.03125 -100.4375 Z M 30.921875 -100.4375 "/></g></g></g><g fill="#ffffff" fill-opacity="1"><g transform="translate(839.020132, 104.843067)"><g><path d="M 87.046875 -100.4375 L 87.046875 -35.671875 C 87.046875 -23.253906 83.695312 -13.898438 77 -7.609375 C 70.3125 -1.316406 60.59375 1.828125 47.84375 1.828125 C 35.019531 1.828125 25.28125 -1.316406 18.625 -7.609375 C 11.96875 -13.898438 8.640625 -23.253906 8.640625 -35.671875 L 8.640625 -100.4375 L 31.53125 -100.4375 L 31.53125 -42.375 C 31.53125 -36.769531 32.097656 -32.382812 33.234375 -29.21875 C 34.367188 -26.050781 36.15625 -23.835938 38.59375 -22.578125 C 41.03125 -21.328125 44.113281 -20.703125 47.84375 -20.703125 C 51.582031 -20.703125 54.644531 -21.328125 57.03125 -22.578125 C 59.425781 -23.835938 61.210938 -26.050781 62.390625 -29.21875 C 63.566406 -32.382812 64.15625 -36.769531 64.15625 -42.375 L 64.15625 -100.4375 Z M 87.046875 -100.4375 "/></g></g></g><g fill="#ffffff" fill-opacity="1"><g transform="translate(934.593909, 104.843067)"><g><path d="M 32.140625 -57.46875 L 35.0625 -57.46875 C 38.144531 -57.46875 41.003906 -57.691406 43.640625 -58.140625 C 46.285156 -58.585938 48.4375 -59.679688 50.09375 -61.421875 C 51.757812 -63.171875 52.59375 -65.992188 52.59375 -69.890625 C 52.59375 -73.859375 51.757812 -76.695312 50.09375 -78.40625 C 48.4375 -80.113281 46.285156 -81.1875 43.640625 -81.625 C 41.003906 -82.070312 38.144531 -82.296875 35.0625 -82.296875 L 32.140625 -82.296875 Z M 32.140625 -42.125 L 32.140625 -17.28125 L 35.0625 -17.28125 C 37.332031 -17.28125 39.6875 -17.378906 42.125 -17.578125 C 44.5625 -17.785156 46.8125 -18.273438 48.875 -19.046875 C 50.945312 -19.816406 52.632812 -21.054688 53.9375 -22.765625 C 55.238281 -24.472656 55.890625 -26.785156 55.890625 -29.703125 C 55.890625 -32.628906 55.054688 -34.941406 53.390625 -36.640625 C 51.722656 -38.347656 49.710938 -39.585938 47.359375 -40.359375 C 45.003906 -41.128906 42.671875 -41.613281 40.359375 -41.8125 C 38.046875 -42.019531 36.28125 -42.125 35.0625 -42.125 Z M 68.78125 -51.015625 C 72.351562 -48.492188 75.175781 -45.328125 77.25 -41.515625 C 79.320312 -37.703125 80.359375 -33.28125 80.359375 -28.25 C 80.359375 -22.082031 78.851562 -16.882812 75.84375 -12.65625 C 72.84375 -8.4375 68.742188 -5.269531 63.546875 -3.15625 C 58.359375 -1.050781 52.476562 0 45.90625 0 L 8.15625 0 L 8.15625 -99.953125 L 45.90625 -99.953125 C 55.71875 -99.953125 63.363281 -97.515625 68.84375 -92.640625 C 74.320312 -87.773438 77.0625 -80.675781 77.0625 -71.34375 C 77.0625 -67.125 76.332031 -63.289062 74.875 -59.84375 C 73.414062 -56.394531 71.382812 -53.453125 68.78125 -51.015625 Z M 68.78125 -51.015625 "/></g></g></g></g></g></g><g transform="matrix(1, 0, 0, 1, 434, 7)"><g clip-path="url(#64d42012c2)"><g fill="#ffffff" fill-opacity="1"><g transform="translate(2.765651, 676.290602)"><g><path d="M 13.203125 -108.265625 C 27.285156 -125.421875 40.925781 -143.460938 54.125 -162.390625 C 67.332031 -181.316406 78.773438 -200.460938 88.453125 -219.828125 C 99.898438 -201.773438 114.09375 -185.046875 131.03125 -169.640625 C 147.976562 -154.242188 166.679688 -142.035156 187.140625 -133.015625 C 207.609375 -123.992188 229.0625 -119.484375 251.5 -119.484375 C 267.789062 -119.484375 283.085938 -121.570312 297.390625 -125.75 C 311.691406 -129.9375 323.351562 -136.648438 332.375 -145.890625 C 341.394531 -155.128906 345.90625 -167.226562 345.90625 -182.1875 C 345.90625 -195.832031 340.070312 -207.054688 328.40625 -215.859375 C 316.75 -224.660156 301.457031 -232.140625 282.53125 -238.296875 C 263.601562 -244.460938 242.804688 -250.625 220.140625 -256.78125 C 197.484375 -262.945312 174.710938 -270.429688 151.828125 -279.234375 C 128.941406 -288.035156 108.035156 -299.476562 89.109375 -313.5625 C 70.191406 -327.644531 54.898438 -345.6875 43.234375 -367.6875 C 31.578125 -389.695312 25.75 -416.765625 25.75 -448.890625 C 25.75 -480.128906 33.117188 -507.960938 47.859375 -532.390625 C 62.597656 -556.816406 82.398438 -577.609375 107.265625 -594.765625 C 132.128906 -611.929688 159.960938 -624.914062 190.765625 -633.71875 C 221.578125 -642.519531 253.265625 -646.921875 285.828125 -646.921875 C 328.078125 -646.921875 363.613281 -642.410156 392.4375 -633.390625 C 421.269531 -624.367188 445.253906 -613.472656 464.390625 -600.703125 C 483.535156 -587.941406 499.710938 -575.84375 512.921875 -564.40625 C 501.910156 -547.238281 489.691406 -529.082031 476.265625 -509.9375 C 462.847656 -490.800781 450.421875 -470.226562 438.984375 -448.21875 C 420.054688 -465.382812 397.828125 -480.457031 372.296875 -493.4375 C 346.773438 -506.425781 319.054688 -512.921875 289.140625 -512.921875 C 275.054688 -512.921875 260.75 -510.9375 246.21875 -506.96875 C 231.695312 -503.007812 219.484375 -496.628906 209.578125 -487.828125 C 199.679688 -479.023438 194.734375 -467.363281 194.734375 -452.84375 C 194.734375 -437.882812 200.34375 -425.894531 211.5625 -416.875 C 222.789062 -407.851562 237.753906 -400.476562 256.453125 -394.75 C 275.160156 -389.03125 295.734375 -383.3125 318.171875 -377.59375 C 340.617188 -371.875 362.953125 -365.050781 385.171875 -357.125 C 407.398438 -349.207031 427.863281 -338.644531 446.5625 -325.4375 C 465.269531 -312.238281 480.234375 -295.1875 491.453125 -274.28125 C 502.679688 -253.375 508.296875 -226.859375 508.296875 -194.734375 C 508.296875 -151.609375 496.851562 -114.75 473.96875 -84.15625 C 451.082031 -53.570312 419.945312 -30.25 380.5625 -14.1875 C 341.175781 1.875 296.835938 9.90625 247.546875 9.90625 C 219.816406 9.90625 192.859375 6.492188 166.671875 -0.328125 C 140.492188 -7.148438 116.625 -16.28125 95.0625 -27.71875 C 73.5 -39.164062 55.5625 -51.929688 41.25 -66.015625 C 26.945312 -80.097656 17.597656 -94.179688 13.203125 -108.265625 Z M 13.203125 -108.265625 "/></g></g></g></g></g></g></g></svg>